<svg width="491" height="54" viewBox="0 0 491 54" fill="none" xmlns="http://www.w3.org/2000/svg">
<path d="M53.4842 49.9139C53.6467 50.2377 53.7437 50.5903 53.7699 50.9516C53.796 51.3129 53.7508 51.6758 53.6367 52.0197C53.5226 52.3635 53.3419 52.6814 53.1049 52.9554C52.868 53.2294 52.5793 53.454 52.2556 53.6164C51.9318 53.7789 51.5792 53.8759 51.2179 53.9021C50.8566 53.9283 50.4936 53.883 50.1498 53.7689C49.806 53.6548 49.4881 53.4741 49.2141 53.2372C48.9401 53.0002 48.7155 52.7116 48.5531 52.3878L26.8885 9.01742L5.22599 52.3795C4.89794 53.0337 4.32346 53.5308 3.62891 53.7614C2.93436 53.992 2.17665 53.9373 1.52247 53.6092C0.868279 53.2812 0.3712 52.7067 0.140587 52.0121C-0.0900265 51.3176 -0.0352899 50.5599 0.29276 49.9057L24.4126 1.6083C24.6412 1.14977 24.9932 0.76404 25.4289 0.494429C25.8646 0.224817 26.3668 0.0819948 26.8792 0.0819948C27.3916 0.0819948 27.8938 0.224817 28.3295 0.494429C28.7653 0.76404 29.1172 1.14977 29.3458 1.6083L53.4842 49.9139ZM112.689 48.3905H67.1295V2.84934C67.1295 2.48738 67.0582 2.12897 66.9196 1.79457C66.7811 1.46016 66.5781 1.15631 66.3222 0.90037C66.0662 0.644428 65.7624 0.441406 65.428 0.302891C65.0936 0.164376 64.7352 0.0930832 64.3732 0.0930832C64.0112 0.0930832 63.6528 0.164376 63.3184 0.302891C62.984 0.441406 62.6802 0.644428 62.4242 0.90037C62.1683 1.15631 61.9653 1.46016 61.8267 1.79457C61.6882 2.12897 61.6169 2.48738 61.6169 2.84934V51.1467C61.6169 51.5087 61.6882 51.8671 61.8267 52.2015C61.9653 52.5359 62.1683 52.8398 62.4242 53.0957C62.6802 53.3516 62.984 53.5547 63.3184 53.6932C63.6528 53.8317 64.0112 53.903 64.3732 53.903H112.689C113.42 53.903 114.121 53.6126 114.638 53.0957C115.155 52.5788 115.445 51.8777 115.445 51.1467C115.445 50.4157 115.155 49.7147 114.638 49.1978C114.121 48.6809 113.42 48.3905 112.689 48.3905ZM174.277 48.3905H125.972C125.241 48.3905 124.539 48.6809 124.023 49.1978C123.506 49.7147 123.215 50.4157 123.215 51.1467C123.215 51.8777 123.506 52.5788 124.023 53.0957C124.539 53.6126 125.241 53.903 125.972 53.903H174.277C175.008 53.903 175.709 53.6126 176.226 53.0957C176.743 52.5788 177.033 51.8777 177.033 51.1467C177.033 50.4157 176.743 49.7147 176.226 49.1978C175.709 48.6809 175.008 48.3905 174.277 48.3905ZM174.277 0.0910196H125.972C125.253 0.11066 124.571 0.409777 124.07 0.924727C123.569 1.43968 123.289 2.12981 123.289 2.84831C123.289 3.5668 123.569 4.25694 124.07 4.77189C124.571 5.28684 125.253 5.58596 125.972 5.6056H174.277C174.995 5.58596 175.678 5.28684 176.179 4.77189C176.68 4.25694 176.96 3.5668 176.96 2.84831C176.96 2.12981 176.68 1.43968 176.179 0.924727C175.678 0.409777 174.995 0.11066 174.277 0.0910196ZM174.277 24.2418H125.972C125.241 24.2418 124.539 24.5322 124.023 25.0491C123.506 25.566 123.215 26.267 123.215 26.998C123.215 27.729 123.506 28.4301 124.023 28.947C124.539 29.4639 125.241 29.7543 125.972 29.7543H174.277C175.008 29.7543 175.709 29.4639 176.226 28.947C176.743 28.4301 177.033 27.729 177.033 26.998C177.033 26.267 176.743 25.566 176.226 25.0491C175.709 24.5322 175.008 24.2418 174.277 24.2418ZM216.538 22.2318C216.282 21.9758 216.079 21.6718 215.94 21.3372C215.801 21.0025 215.73 20.6438 215.73 20.2816C215.73 19.9193 215.801 19.5606 215.94 19.226C216.079 18.8914 216.282 18.5874 216.538 18.3314L234.061 0.808432C234.326 0.543346 234.643 0.335032 234.991 0.196207C235.339 0.0573815 235.712 -0.00904351 236.086 0.000988355C236.461 0.0110202 236.83 0.097299 237.17 0.254555C237.51 0.411811 237.815 0.636744 238.065 0.915629C239.063 2.02473 238.908 3.7626 237.859 4.8181L220.441 22.2359C220.184 22.4921 219.88 22.6952 219.545 22.8336C219.21 22.9721 218.85 23.0431 218.488 23.0427C218.125 23.0423 217.766 22.9705 217.431 22.8314C217.097 22.6922 216.792 22.4885 216.536 22.2318H216.538ZM207.006 22.2318C207.262 21.9758 207.466 21.6718 207.604 21.3372C207.743 21.0025 207.814 20.6438 207.814 20.2816C207.814 19.9193 207.743 19.5606 207.604 19.226C207.466 18.8914 207.262 18.5874 207.006 18.3314L189.551 0.87646C188.609 -0.0677183 187.106 -0.294483 186.001 0.45385C185.662 0.681285 185.377 0.981132 185.168 1.3318C184.958 1.68246 184.829 2.07522 184.79 2.48178C184.75 2.88834 184.801 3.29858 184.94 3.68297C185.078 4.06735 185.3 4.41631 185.589 4.70471L203.112 22.2277C203.628 22.7423 204.328 23.0317 205.057 23.0324C205.786 23.0332 206.486 22.7454 207.004 22.2318H207.006ZM216.503 31.7292C216.247 31.9852 216.044 32.2892 215.905 32.6239C215.766 32.9585 215.695 33.3172 215.695 33.6794C215.695 34.0417 215.766 34.4004 215.905 34.735C216.044 35.0696 216.247 35.3737 216.503 35.6296L234.066 53.1918C234.334 53.4606 234.656 53.6709 235.009 53.8097C235.363 53.9484 235.742 54.0125 236.122 53.998C236.501 53.9835 236.874 53.8906 237.216 53.7253C237.559 53.5599 237.863 53.3257 238.11 53.0372C239.069 51.9239 238.902 50.2252 237.863 49.1883L220.404 31.7292C220.148 31.4726 219.844 31.269 219.509 31.1301C219.174 30.9912 218.815 30.9197 218.453 30.9197C218.09 30.9197 217.731 30.9912 217.396 31.1301C217.062 31.269 216.757 31.4726 216.501 31.7292H216.503ZM203.141 31.7292L185.682 49.1862C184.651 50.217 184.476 51.9239 185.434 53.0372C185.682 53.3257 185.986 53.5599 186.328 53.7253C186.67 53.8906 187.043 53.9835 187.423 53.998C187.803 54.0125 188.181 53.9484 188.535 53.8097C188.889 53.6709 189.21 53.4606 189.479 53.1918L207.041 35.6296C207.297 35.3737 207.501 35.0696 207.639 34.735C207.778 34.4004 207.85 34.0417 207.85 33.6794C207.85 33.3172 207.778 32.9585 207.639 32.6239C207.501 32.2892 207.297 31.9852 207.041 31.7292C206.785 31.4726 206.481 31.269 206.146 31.1301C205.811 30.9912 205.452 30.9197 205.09 30.9197C204.727 30.9197 204.368 30.9912 204.034 31.1301C203.699 31.269 203.395 31.4726 203.139 31.7292H203.141Z" fill="url(#paint0_radial_2_8)"/>
<rect x="278.953" width="1.64923" height="53.9996" fill="#E5E7EB"/>
<path d="M320.812 22.7323V0.723158H325.371V18.7078H337.413V22.7323H320.812Z" fill="url(#paint1_linear_2_8)"/>
<path d="M345.963 23.0153C344.789 23.0153 343.751 22.8057 342.85 22.3864C341.949 21.9463 341.247 21.3489 340.744 20.5943C340.24 19.8397 339.989 18.9698 339.989 17.9846C339.989 16.4125 340.576 15.1968 341.75 14.3374C342.944 13.457 344.579 13.0168 346.655 13.0168C348.08 13.0168 349.421 13.2369 350.679 13.6771V12.4823C350.679 11.5391 350.386 10.8264 349.799 10.3443C349.212 9.8622 348.352 9.62114 347.221 9.62114C346.529 9.62114 345.785 9.73643 344.988 9.967C344.192 10.1766 343.269 10.512 342.221 10.9731L340.649 7.79753C341.949 7.21062 343.186 6.77043 344.359 6.47698C345.554 6.18352 346.749 6.0368 347.944 6.0368C350.145 6.0368 351.853 6.5713 353.069 7.64032C354.305 8.68837 354.924 10.1766 354.924 12.105V22.7323H350.679V21.569C350.008 22.072 349.285 22.4389 348.51 22.6694C347.734 22.9 346.885 23.0153 345.963 23.0153ZM344.076 17.8903C344.076 18.5191 344.349 19.0222 344.894 19.3995C345.439 19.7558 346.162 19.934 347.063 19.934C347.776 19.934 348.436 19.8502 349.044 19.6825C349.652 19.4938 350.197 19.2213 350.679 18.865V16.4754C350.155 16.2658 349.61 16.1086 349.044 16.0038C348.478 15.899 347.87 15.8466 347.221 15.8466C346.235 15.8466 345.46 16.0352 344.894 16.4125C344.349 16.7689 344.076 17.2615 344.076 17.8903Z" fill="url(#paint2_linear_2_8)"/>
<path d="M358.655 22.7323V0.723158L362.963 0V7.67176C364.263 6.64467 365.793 6.13112 367.553 6.13112C369.105 6.13112 370.509 6.50842 371.767 7.26302C373.024 8.01762 374.02 9.03423 374.754 10.3129C375.508 11.5705 375.885 12.9854 375.885 14.5575C375.885 16.1296 375.508 17.5549 374.754 18.8335C373.999 20.0912 372.982 21.0973 371.704 21.8519C370.425 22.5856 369 22.9524 367.428 22.9524C366.61 22.9524 365.814 22.8371 365.038 22.6065C364.263 22.376 363.55 22.0406 362.9 21.6004V22.7323H358.655ZM366.862 19.3052C367.763 19.3052 368.57 19.0956 369.283 18.6763C370.016 18.2571 370.593 17.6912 371.012 16.9785C371.431 16.2658 371.641 15.4588 371.641 14.5575C371.641 13.6562 371.431 12.8492 371.012 12.1365C370.593 11.4028 370.016 10.8369 369.283 10.4386C368.57 10.0194 367.763 9.80979 366.862 9.80979C366.065 9.80979 365.332 9.94604 364.661 10.2185C364.011 10.4701 363.445 10.8578 362.963 11.3819V17.7645C363.424 18.2466 363.99 18.6239 364.661 18.8964C365.353 19.1689 366.086 19.3052 366.862 19.3052Z" fill="url(#paint3_linear_2_8)"/>
<path d="M320.812 53.6852V31.676H337.822V35.6377H325.371V40.8255H333.64V44.6614H325.371V53.6852H320.812Z" fill="url(#paint4_linear_2_8)"/>
<path d="M345.905 53.9996C344.27 53.9996 342.792 53.6223 341.472 52.8677C340.151 52.1131 339.103 51.0965 338.327 49.8179C337.552 48.5392 337.164 47.1034 337.164 45.5103C337.164 43.9173 337.541 42.4815 338.296 41.2028C339.072 39.9033 340.12 38.8762 341.44 38.1216C342.782 37.367 344.27 36.9897 345.905 36.9897C347.54 36.9897 349.018 37.367 350.338 38.1216C351.68 38.8762 352.728 39.9033 353.482 41.2028C354.258 42.4815 354.646 43.9173 354.646 45.5103C354.646 47.1034 354.258 48.5392 353.482 49.8179C352.728 51.0965 351.69 52.1131 350.37 52.8677C349.049 53.6223 347.561 53.9996 345.905 53.9996ZM345.905 50.258C346.764 50.258 347.529 50.0484 348.2 49.6292C348.892 49.21 349.437 48.644 349.835 47.9314C350.254 47.1977 350.464 46.3907 350.464 45.5103C350.464 44.609 350.254 43.802 349.835 43.0893C349.437 42.3767 348.892 41.8107 348.2 41.3915C347.529 40.9513 346.764 40.7312 345.905 40.7312C345.066 40.7312 344.301 40.9513 343.61 41.3915C342.918 41.8107 342.373 42.3767 341.975 43.0893C341.576 43.802 341.377 44.609 341.377 45.5103C341.377 46.3907 341.576 47.1977 341.975 47.9314C342.373 48.644 342.918 49.21 343.61 49.6292C344.301 50.0484 345.066 50.258 345.905 50.258Z" fill="url(#paint5_linear_2_8)"/>
<path d="M364.116 53.9996C362.859 53.9996 361.737 53.7271 360.752 53.1821C359.788 52.6162 359.023 51.8406 358.457 50.8554C357.912 49.8703 357.639 48.7383 357.639 47.4597V37.3041H361.947V46.8309C361.947 47.8789 362.251 48.7174 362.859 49.3462C363.487 49.9751 364.326 50.2895 365.374 50.2895C366.087 50.2895 366.726 50.1532 367.292 49.8807C367.879 49.5873 368.361 49.1785 368.738 48.6545V37.3041H373.046V53.6852H368.738V52.3646C367.48 53.4546 365.94 53.9996 364.116 53.9996Z" fill="url(#paint6_linear_2_8)"/>
<path d="M376.874 53.6852V37.3041H381.182V38.6561C382.419 37.5451 383.949 36.9897 385.772 36.9897C387.051 36.9897 388.172 37.2726 389.137 37.8386C390.122 38.3836 390.887 39.1487 391.432 40.1338C391.977 41.098 392.249 42.2299 392.249 43.5295V53.6852H387.942V44.1584C387.942 43.0893 387.638 42.2509 387.03 41.643C386.422 41.0142 385.594 40.6998 384.546 40.6998C383.812 40.6998 383.163 40.8465 382.597 41.14C382.031 41.4125 381.559 41.8107 381.182 42.3347V53.6852H376.874Z" fill="url(#paint7_linear_2_8)"/>
<path d="M403.561 53.9053C402.01 53.9053 400.606 53.528 399.348 52.7734C398.09 52.0188 397.084 51.0126 396.33 49.755C395.596 48.4763 395.229 47.051 395.229 45.4789C395.229 43.9068 395.596 42.492 396.33 41.2343C397.084 39.9557 398.101 38.9495 399.379 38.2159C400.658 37.4613 402.094 37.084 403.687 37.084C404.504 37.084 405.29 37.1993 406.045 37.4298C406.8 37.6395 407.502 37.9539 408.152 38.3731V31.676L412.459 30.9529V53.6852H408.215V52.3332C406.873 53.3812 405.322 53.9053 403.561 53.9053ZM404.253 50.2266C405.049 50.2266 405.773 50.1008 406.422 49.8493C407.093 49.5768 407.67 49.1785 408.152 48.6545V42.2719C407.67 41.7897 407.093 41.4125 406.422 41.14C405.752 40.8675 405.028 40.7312 404.253 40.7312C403.352 40.7312 402.534 40.9408 401.8 41.3601C401.088 41.7583 400.522 42.3243 400.103 43.0579C399.683 43.7706 399.474 44.5776 399.474 45.4789C399.474 46.3802 399.683 47.1872 400.103 47.8999C400.522 48.6126 401.088 49.1785 401.8 49.5978C402.534 50.017 403.352 50.2266 404.253 50.2266Z" fill="url(#paint8_linear_2_8)"/>
<path d="M421.51 53.9681C420.336 53.9681 419.299 53.7585 418.397 53.3393C417.496 52.8991 416.794 52.3017 416.291 51.5471C415.788 50.7925 415.536 49.9227 415.536 48.9375C415.536 47.3654 416.123 46.1497 417.297 45.2903C418.492 44.4099 420.126 43.9697 422.202 43.9697C423.627 43.9697 424.968 44.1898 426.226 44.63V43.4352C426.226 42.4919 425.933 41.7793 425.346 41.2972C424.759 40.8151 423.899 40.574 422.768 40.574C422.076 40.574 421.332 40.6893 420.535 40.9199C419.739 41.1295 418.816 41.4649 417.768 41.926L416.196 38.7504C417.496 38.1635 418.733 37.7233 419.906 37.4298C421.101 37.1364 422.296 36.9897 423.491 36.9897C425.692 36.9897 427.4 37.5242 428.616 38.5932C429.852 39.6412 430.471 41.1295 430.471 43.0579V53.6852H426.226V52.5218C425.555 53.0249 424.832 53.3917 424.057 53.6223C423.281 53.8529 422.432 53.9681 421.51 53.9681ZM419.623 48.8432C419.623 49.472 419.896 49.9751 420.441 50.3524C420.986 50.7087 421.709 50.8869 422.61 50.8869C423.323 50.8869 423.983 50.803 424.591 50.6353C425.199 50.4467 425.744 50.1742 426.226 49.8179V47.4283C425.702 47.2187 425.157 47.0615 424.591 46.9567C424.025 46.8519 423.417 46.7994 422.768 46.7994C421.782 46.7994 421.007 46.9881 420.441 47.3654C419.896 47.7217 419.623 48.2143 419.623 48.8432Z" fill="url(#paint9_linear_2_8)"/>
<path d="M441.508 53.9367C439.684 53.9367 438.301 53.528 437.358 52.7105C436.435 51.872 435.974 50.6563 435.974 49.0633V40.8884H432.61V37.3041H435.974V33.1223L440.282 32.1476V37.3041H444.967V40.8884H440.282V48.1829C440.282 48.9375 440.449 49.4825 440.785 49.8179C441.12 50.1323 441.707 50.2895 442.546 50.2895C442.965 50.2895 443.342 50.2685 443.677 50.2266C444.034 50.1637 444.422 50.0589 444.841 49.9122V53.4651C444.401 53.6118 443.845 53.7271 443.174 53.8109C442.525 53.8948 441.969 53.9367 441.508 53.9367Z" fill="url(#paint10_linear_2_8)"/>
<path d="M447.539 53.6852V37.3041H451.847V53.6852H447.539ZM449.677 35.3547C449.007 35.3547 448.43 35.1136 447.948 34.6315C447.466 34.1494 447.225 33.573 447.225 32.9022C447.225 32.2105 447.466 31.6341 447.948 31.173C448.43 30.6909 449.007 30.4498 449.677 30.4498C450.369 30.4498 450.946 30.6909 451.407 31.173C451.889 31.6341 452.13 32.2105 452.13 32.9022C452.13 33.573 451.889 34.1494 451.407 34.6315C450.946 35.1136 450.369 35.3547 449.677 35.3547Z" fill="url(#paint11_linear_2_8)"/>
<path d="M463.673 53.9996C462.038 53.9996 460.561 53.6223 459.24 52.8677C457.92 52.1131 456.872 51.0965 456.096 49.8179C455.32 48.5392 454.933 47.1034 454.933 45.5103C454.933 43.9173 455.31 42.4815 456.065 41.2028C456.84 39.9033 457.888 38.8762 459.209 38.1216C460.55 37.367 462.038 36.9897 463.673 36.9897C465.308 36.9897 466.786 37.367 468.107 38.1216C469.448 38.8762 470.496 39.9033 471.251 41.2028C472.026 42.4815 472.414 43.9173 472.414 45.5103C472.414 47.1034 472.026 48.5392 471.251 49.8179C470.496 51.0965 469.459 52.1131 468.138 52.8677C466.818 53.6223 465.329 53.9996 463.673 53.9996ZM463.673 50.258C464.533 50.258 465.298 50.0484 465.969 49.6292C466.66 49.21 467.205 48.644 467.604 47.9314C468.023 47.1977 468.232 46.3907 468.232 45.5103C468.232 44.609 468.023 43.802 467.604 43.0893C467.205 42.3767 466.66 41.8107 465.969 41.3915C465.298 40.9513 464.533 40.7312 463.673 40.7312C462.835 40.7312 462.07 40.9513 461.378 41.3915C460.686 41.8107 460.141 42.3767 459.743 43.0893C459.345 43.802 459.146 44.609 459.146 45.5103C459.146 46.3907 459.345 47.1977 459.743 47.9314C460.141 48.644 460.686 49.21 461.378 49.6292C462.07 50.0484 462.835 50.258 463.673 50.258Z" fill="url(#paint12_linear_2_8)"/>
<path d="M475.533 53.6852V37.3041H479.841V38.6561C481.078 37.5451 482.608 36.9897 484.431 36.9897C485.71 36.9897 486.832 37.2726 487.796 37.8386C488.781 38.3836 489.546 39.1487 490.091 40.1338C490.636 41.098 490.908 42.2299 490.908 43.5295V53.6852H486.601V44.1584C486.601 43.0893 486.297 42.2509 485.689 41.643C485.081 41.0142 484.253 40.6998 483.205 40.6998C482.472 40.6998 481.822 40.8465 481.256 41.14C480.69 41.4125 480.218 41.8107 479.841 42.3347V53.6852H475.533Z" fill="url(#paint13_linear_2_8)"/>
<defs>
<radialGradient id="paint0_radial_2_8" cx="0" cy="0" r="1" gradientUnits="userSpaceOnUse" gradientTransform="translate(-15.1274 58.9331) scale(262.143)">
<stop stop-color="#02E1B3"/>
<stop offset="0.35" stop-color="#0B54FF"/>
<stop offset="0.43" stop-color="#1152FF"/>
<stop offset="0.54" stop-color="#204BFF"/>
<stop offset="0.66" stop-color="#3B40FE"/>
<stop offset="0.8" stop-color="#5F31FE"/>
<stop offset="0.93" stop-color="#8E1EFD"/>
<stop offset="1" stop-color="#A714FD"/>
</radialGradient>
<linearGradient id="paint1_linear_2_8" x1="320.793" y1="27.006" x2="490.868" y2="27.006" gradientUnits="userSpaceOnUse">
<stop stop-color="#E5E7EB"/>
<stop offset="1" stop-color="#62B1F9"/>
</linearGradient>
<linearGradient id="paint2_linear_2_8" x1="320.793" y1="27.006" x2="490.868" y2="27.006" gradientUnits="userSpaceOnUse">
<stop stop-color="#E5E7EB"/>
<stop offset="1" stop-color="#62B1F9"/>
</linearGradient>
<linearGradient id="paint3_linear_2_8" x1="320.793" y1="27.006" x2="490.868" y2="27.006" gradientUnits="userSpaceOnUse">
<stop stop-color="#E5E7EB"/>
<stop offset="1" stop-color="#62B1F9"/>
</linearGradient>
<linearGradient id="paint4_linear_2_8" x1="320.793" y1="27.006" x2="490.868" y2="27.006" gradientUnits="userSpaceOnUse">
<stop stop-color="#E5E7EB"/>
<stop offset="1" stop-color="#62B1F9"/>
</linearGradient>
<linearGradient id="paint5_linear_2_8" x1="320.793" y1="27.006" x2="490.868" y2="27.006" gradientUnits="userSpaceOnUse">
<stop stop-color="#E5E7EB"/>
<stop offset="1" stop-color="#62B1F9"/>
</linearGradient>
<linearGradient id="paint6_linear_2_8" x1="320.793" y1="27.006" x2="490.868" y2="27.006" gradientUnits="userSpaceOnUse">
<stop stop-color="#E5E7EB"/>
<stop offset="1" stop-color="#62B1F9"/>
</linearGradient>
<linearGradient id="paint7_linear_2_8" x1="320.793" y1="27.006" x2="490.868" y2="27.006" gradientUnits="userSpaceOnUse">
<stop stop-color="#E5E7EB"/>
<stop offset="1" stop-color="#62B1F9"/>
</linearGradient>
<linearGradient id="paint8_linear_2_8" x1="320.793" y1="27.006" x2="490.868" y2="27.006" gradientUnits="userSpaceOnUse">
<stop stop-color="#E5E7EB"/>
<stop offset="1" stop-color="#62B1F9"/>
</linearGradient>
<linearGradient id="paint9_linear_2_8" x1="320.793" y1="27.006" x2="490.868" y2="27.006" gradientUnits="userSpaceOnUse">
<stop stop-color="#E5E7EB"/>
<stop offset="1" stop-color="#62B1F9"/>
</linearGradient>
<linearGradient id="paint10_linear_2_8" x1="320.793" y1="27.006" x2="490.868" y2="27.006" gradientUnits="userSpaceOnUse">
<stop stop-color="#E5E7EB"/>
<stop offset="1" stop-color="#62B1F9"/>
</linearGradient>
<linearGradient id="paint11_linear_2_8" x1="320.793" y1="27.006" x2="490.868" y2="27.006" gradientUnits="userSpaceOnUse">
<stop stop-color="#E5E7EB"/>
<stop offset="1" stop-color="#62B1F9"/>
</linearGradient>
<linearGradient id="paint12_linear_2_8" x1="320.793" y1="27.006" x2="490.868" y2="27.006" gradientUnits="userSpaceOnUse">
<stop stop-color="#E5E7EB"/>
<stop offset="1" stop-color="#62B1F9"/>
</linearGradient>
<linearGradient id="paint13_linear_2_8" x1="320.793" y1="27.006" x2="490.868" y2="27.006" gradientUnits="userSpaceOnUse">
<stop stop-color="#E5E7EB"/>
<stop offset="1" stop-color="#62B1F9"/>
</linearGradient>
</defs>
</svg>
